<?xml version="1.0"?>
<svg xmlns="http://www.w3.org/2000/svg" id="Layer_1" data-name="Layer 1" viewBox="0 0 128 128" width="512" height="512"><title>TECHNICAL SUPPORT</title><path d="M67.747,58.878a1.25,1.25,0,1,0,1.767-1.767l-.562-.562a1.25,1.25,0,0,0-1.767,1.767Z"/><path d="M97.739,85.334,72.827,60.423A1.25,1.25,0,0,0,71.06,62.19L95.971,87.1A6.271,6.271,0,1,1,87.1,95.971L53.988,62.857a1.251,1.251,0,0,0-1.315-.289,16.689,16.689,0,0,1-22.029-19.52l6.238,6.236a1.25,1.25,0,1,0,1.768-1.768L30.934,39.8a1.25,1.25,0,0,0-2.057.452,19.192,19.192,0,0,0,23.9,24.921L85.335,97.738a8.771,8.771,0,0,0,12.4-12.4Z"/><path d="M50.446,41.577,40.693,51.33A1.25,1.25,0,0,0,42.461,53.1L53.1,42.461a1.249,1.249,0,0,0,0-1.768l-10.05-10.05a16.688,16.688,0,0,1,19.52,22.029,1.25,1.25,0,0,0,2.347.863A19.192,19.192,0,0,0,40.255,28.878a1.25,1.25,0,0,0-.452,2.057Z"/></svg>
